<svg xmlns="http://www.w3.org/2000/svg" viewBox="0 0 512 512">
  <rect width="512" height="512" rx="100" fill="#FF8FAB"/>
  <!-- Piano keys -->
  <rect x="96" y="180" width="48" height="160" rx="8" fill="white"/>
  <rect x="152" y="180" width="48" height="160" rx="8" fill="white"/>
  <rect x="208" y="180" width="48" height="160" rx="8" fill="white"/>
  <rect x="264" y="180" width="48" height="160" rx="8" fill="white"/>
  <rect x="320" y="180" width="48" height="160" rx="8" fill="white"/>
  <rect x="368" y="180" width="48" height="160" rx="8" fill="white"/>
  <!-- Black keys -->
  <rect x="132" y="180" width="32" height="100" rx="6" fill="#222"/>
  <rect x="188" y="180" width="32" height="100" rx="6" fill="#222"/>
  <rect x="300" y="180" width="32" height="100" rx="6" fill="#222"/>
  <rect x="356" y="180" width="32" height="100" rx="6" fill="#222"/>
  <!-- Music note -->
  <circle cx="168" cy="120" r="22" fill="white"/>
  <rect x="188" y="62" width="14" height="60" rx="7" fill="white"/>
  <rect x="188" y="62" width="60" height="14" rx="7" fill="white"/>
</svg>
